<?xml version="1.0" standalone="no"?>
<!DOCTYPE svg PUBLIC "-//W3C//DTD SVG 20010904//EN"
 "http://www.w3.org/TR/2001/REC-SVG-20010904/DTD/svg10.dtd">
<svg version="1.0" xmlns="http://www.w3.org/2000/svg"
 width="300.000000pt" height="300.000000pt" viewBox="0 0 300.000000 300.000000"
 preserveAspectRatio="xMidYMid meet">
<metadata>
Created by potrace 1.16, written by Peter Selinger 2001-2019
</metadata>
<g transform="translate(0.000000,300.000000) scale(0.100000,-0.100000)"
fill="#000000" stroke="none">
<path d="M120 2135 c0 -8 7 -15 15 -15 13 0 15 -53 15 -420 0 -367 -2 -420
-15 -420 -8 0 -15 -7 -15 -15 0 -13 22 -15 140 -15 l140 0 0 140 0 140 -45 0
-45 0 0 -125 0 -125 -30 0 -30 0 0 215 0 215 50 0 c43 0 50 3 50 20 0 17 -7
20 -50 20 l-50 0 0 185 0 185 30 0 30 0 0 -120 0 -120 45 0 45 0 0 135 0 135
-140 0 c-118 0 -140 -2 -140 -15z"/>
<path d="M1710 2135 c0 -8 4 -15 10 -15 6 0 11 -155 12 -420 2 -331 0 -420 -9
-420 -7 0 -13 -7 -13 -15 0 -12 17 -15 96 -15 79 0 102 4 129 20 58 36 67 70
63 245 l-3 154 -29 30 -30 31 30 31 c28 30 29 33 32 156 4 139 -3 169 -50 208
-27 23 -37 25 -134 25 -86 0 -104 -3 -104 -15z m184 -31 c3 -9 6 -86 6 -173 0
-166 -4 -181 -47 -181 l-23 0 0 185 0 185 29 0 c17 0 31 -6 35 -16z m4 -598
c3 -211 0 -226 -44 -226 l-24 0 0 216 0 215 33 -3 32 -3 3 -199z"/>
<path d="M789 2027 c-19 -13 -39 -38 -46 -57 -18 -53 -18 -600 1 -643 37 -88
141 -107 200 -36 26 30 26 31 26 215 l0 184 -60 0 c-53 0 -60 -2 -60 -20 0
-13 7 -20 20 -20 19 0 20 -7 20 -169 0 -93 -3 -176 -6 -185 -10 -25 -53 -20
-59 7 -3 12 -4 175 -3 361 3 314 4 340 21 350 33 20 47 -16 47 -121 l0 -93 40
0 40 0 0 85 c0 95 -12 125 -61 151 -40 20 -81 17 -120 -9z"/>
<path d="M430 2025 c0 -8 7 -15 15 -15 13 0 15 -47 15 -365 0 -318 -2 -365
-15 -365 -8 0 -15 -7 -15 -15 0 -22 161 -21 200 1 59 35 60 43 60 379 0 330
-2 344 -54 379 -35 22 -206 24 -206 1z m165 -380 l0 -360 -27 -3 -28 -3 0 366
0 366 28 -3 27 -3 0 -360z"/>
<path d="M1056 1718 c-38 -448 -37 -438 -52 -438 -8 0 -14 -7 -14 -15 0 -11
12 -15 45 -15 33 0 45 4 45 15 0 8 -6 15 -13 15 -9 0 -10 24 -3 110 l9 110 28
0 c26 0 29 -4 30 -32 0 -18 4 -68 7 -110 6 -60 5 -78 -5 -78 -7 0 -13 -7 -13
-15 0 -13 22 -15 140 -15 118 0 140 2 140 15 0 8 -7 15 -15 15 -13 0 -15 27
-15 186 l0 185 28 -3 27 -3 5 -176 c4 -156 7 -179 24 -198 23 -25 86 -30 86
-6 0 8 -4 15 -10 15 -6 0 -10 59 -10 158 0 139 -2 161 -20 190 -11 17 -25 32
-32 32 -7 0 -3 8 8 18 37 29 44 57 44 167 0 168 -24 195 -170 195 -73 0 -90
-3 -90 -15 0 -8 7 -15 15 -15 13 0 15 -47 15 -365 l0 -365 -30 0 c-24 0 -30 4
-30 20 0 32 -49 649 -56 698 -5 42 -5 42 -48 42 l-42 0 -28 -322z m372 138 c3
-152 -2 -176 -37 -176 -14 0 -16 19 -16 165 l0 166 25 -3 25 -3 3 -149z"/>
<path d="M2110 2018 c0 -13 -14 -178 -30 -367 -17 -189 -30 -350 -30 -357 0
-8 -7 -14 -15 -14 -8 0 -15 -7 -15 -15 0 -11 12 -15 45 -15 33 0 45 4 45 15 0
8 -6 15 -13 15 -10 0 -11 18 -5 78 3 42 7 92 7 110 1 29 4 32 31 32 27 0 30
-3 31 -32 0 -18 4 -68 7 -110 6 -60 5 -78 -5 -78 -7 0 -13 -7 -13 -15 0 -12
14 -15 70 -15 56 0 70 3 70 15 0 8 -7 15 -15 15 -8 0 -15 8 -15 17 0 29 -50
655 -56 701 l-5 42 -45 0 c-39 0 -44 -3 -44 -22z"/>
<path d="M2290 2025 c0 -8 5 -15 10 -15 6 0 10 -117 10 -330 0 -359 3 -380 54
-414 32 -20 93 -24 125 -7 12 7 31 27 41 44 19 30 20 53 20 370 0 218 4 337
10 337 6 0 10 7 10 15 0 12 -14 15 -65 15 -51 0 -65 -3 -65 -15 0 -8 5 -15 10
-15 7 0 9 -123 8 -362 l-3 -363 -25 0 -25 0 -3 363 c-1 239 1 362 8 362 5 0
10 7 10 15 0 12 -14 15 -65 15 -51 0 -65 -3 -65 -15z"/>
<path d="M2590 1920 l0 -120 40 0 40 0 0 105 c0 63 4 105 10 105 6 0 10 -128
10 -365 0 -237 -4 -365 -10 -365 -5 0 -10 -7 -10 -15 0 -12 14 -15 65 -15 51
0 65 3 65 15 0 8 -4 15 -10 15 -6 0 -10 128 -10 365 0 237 4 365 10 365 6 0
10 -42 10 -105 l0 -105 40 0 40 0 0 120 0 120 -145 0 -145 0 0 -120z"/>
<path d="M110 1145 c0 -13 161 -15 1390 -15 1229 0 1390 2 1390 15 0 13 -161
15 -1390 15 -1229 0 -1390 -2 -1390 -15z"/>
</g>
</svg>
