<?xml version="1.0" standalone="no"?>
<!DOCTYPE svg PUBLIC "-//W3C//DTD SVG 20010904//EN"
 "http://www.w3.org/TR/2001/REC-SVG-20010904/DTD/svg10.dtd">
<svg version="1.0" xmlns="http://www.w3.org/2000/svg"
 width="1247.000000pt" height="1247.000000pt" viewBox="0 0 1247.000000 1247.000000"
 preserveAspectRatio="xMidYMid meet">
<metadata>
Created by potrace 1.16, written by Peter Selinger 2001-2019
</metadata>
<g transform="translate(0.000000,1247.000000) scale(0.100000,-0.100000)"
fill="#000000" stroke="none">
<path d="M1100 8475 l0 -35 50 0 50 0 0 -1345 0 -1345 -50 0 -50 0 0 -35 0
-35 500 0 c275 0 503 -1 508 -2 4 -2 8 189 10 425 l2 427 -167 0 -168 0 3
-390 2 -390 -130 0 -130 0 0 700 0 700 189 0 189 0 4 35 4 35 -193 0 -193 0 0
610 0 611 128 -3 127 -3 3 -390 2 -390 165 3 165 3 0 424 0 425 -510 0 -510 0
0 -35z"/>
<path d="M7030 8473 l0 -38 50 3 50 4 0 -1346 0 -1346 -49 0 c-48 0 -49 0 -53
-35 l-4 -35 331 0 c357 0 385 3 494 56 84 41 181 143 211 224 l25 65 0 435 0
435 -34 72 c-18 39 -44 82 -57 94 -13 12 -21 26 -17 32 3 6 1 7 -5 3 -6 -3
-17 0 -25 8 -8 8 -42 30 -75 48 l-61 34 52 24 c28 14 64 35 79 48 15 13 33 20
39 16 8 -4 9 -3 5 5 -4 7 5 26 22 45 17 19 40 61 53 93 22 56 23 71 27 373 4
343 -2 402 -46 483 -31 58 -119 142 -188 179 -98 53 -139 58 -496 58 l-328 0
0 -37z m653 -63 c75 -51 72 -26 72 -580 0 -554 3 -529 -72 -580 -30 -20 -50
-25 -129 -28 l-94 -4 0 612 0 612 94 -4 c79 -3 99 -8 129 -28z m-43 -1270 c47
-13 99 -68 111 -116 11 -49 11 -1097 0 -1145 -11 -48 -65 -106 -110 -119 -20
-5 -69 -10 -108 -10 l-73 0 0 700 0 700 73 0 c39 0 88 -5 107 -10z"/>
<path d="M3690 8156 c-117 -33 -223 -117 -269 -216 l-26 -55 0 -965 0 -965 27
-58 c48 -102 157 -186 283 -218 27 -7 87 -10 144 -7 78 4 109 10 156 32 85 38
158 97 190 152 53 91 55 107 55 657 l0 507 -215 0 -215 0 0 -30 0 -30 70 0 71
0 -3 -567 c-3 -621 0 -585 -63 -635 -61 -48 -170 -17 -201 58 -21 50 -21 2158
0 2208 44 106 195 107 245 2 20 -40 21 -60 21 -329 l0 -287 146 0 146 0 -4
238 c-3 237 -3 237 -31 294 -50 101 -143 177 -266 214 -56 17 -200 17 -261 0z"/>
<path d="M2260 8121 c0 -30 1 -31 45 -31 l45 0 0 -1175 0 -1175 -45 0 c-43 0
-45 -1 -45 -30 l0 -30 295 0 c272 0 300 2 357 21 109 36 198 114 244 213 l24
51 0 950 0 950 -29 60 c-36 76 -110 146 -199 188 l-67 32 -312 3 -313 3 0 -30z
m532 -41 c20 -6 50 -26 67 -46 l31 -35 0 -1084 c0 -950 -2 -1085 -15 -1099 -8
-8 -15 -19 -15 -25 0 -22 -67 -44 -142 -49 l-78 -5 0 1177 0 1176 58 0 c31 0
74 -5 94 -10z"/>
<path d="M4696 8118 c-3 -18 -15 -125 -26 -238 -11 -113 -36 -356 -55 -540
-37 -356 -114 -1121 -140 -1380 -24 -237 -18 -220 -70 -220 -43 0 -45 -1 -45
-30 l0 -30 140 0 140 0 0 30 c0 29 -2 30 -45 30 -29 0 -45 4 -45 13 0 19 59
617 65 665 l6 43 122 -3 122 -3 26 -295 c15 -162 30 -323 33 -357 l7 -63 -46
0 c-43 0 -45 -1 -45 -30 l0 -30 235 0 235 0 0 30 c0 29 -2 30 -45 30 -53 0
-46 -27 -75 295 -11 127 -30 320 -40 430 -22 221 -160 1674 -160 1681 0 2 -65
4 -145 4 l-144 0 -5 -32z m109 -949 c30 -338 55 -622 55 -631 0 -16 -12 -18
-121 -18 l-121 0 6 28 c3 15 31 300 63 634 32 334 59 605 61 603 2 -1 28 -279
57 -616z"/>
<path d="M5372 8118 c3 -32 4 -33 46 -30 l42 4 0 -1176 0 -1176 -45 0 c-43 0
-45 -1 -45 -30 l0 -30 235 0 235 0 0 30 c0 29 -2 30 -45 30 l-45 0 0 605 0
605 65 0 c75 0 119 -16 155 -55 l25 -27 5 -506 5 -507 28 -58 c22 -44 39 -63
75 -84 42 -25 58 -28 160 -32 l112 -3 0 31 c0 27 -4 32 -28 37 -57 12 -57 7
-62 529 l-5 480 -30 54 c-33 60 -99 122 -156 148 -22 9 -39 20 -39 23 0 3 20
16 45 28 62 30 122 87 153 146 l27 51 0 340 0 340 -24 48 c-30 57 -110 136
-172 167 -87 45 -127 50 -432 50 l-288 0 3 -32z m541 -42 c18 -7 45 -28 60
-45 l27 -33 0 -448 0 -448 -27 -33 c-36 -43 -79 -59 -158 -59 l-65 0 0 540 0
540 65 0 c36 0 80 -6 98 -14z"/>
<path d="M8546 8118 c-5 -29 -44 -414 -197 -1918 -52 -514 -40 -460 -94 -460
-43 0 -45 -1 -45 -30 l0 -30 140 0 140 0 0 30 c0 29 -2 30 -45 30 -27 0 -45 5
-45 11 0 21 60 644 66 677 l5 32 124 0 125 0 0 -25 c0 -27 46 -571 55 -647 l6
-48 -46 0 c-43 0 -45 -1 -45 -30 l0 -30 235 0 235 0 0 30 c0 29 -2 30 -44 30
l-45 0 -6 43 c-3 23 -21 209 -40 412 -19 204 -42 442 -50 530 -9 88 -22 232
-31 320 -8 88 -35 370 -59 627 -25 258 -45 470 -45 473 0 3 -65 5 -145 5
l-144 0 -5 -32z m110 -950 c29 -337 54 -621 54 -630 0 -16 -12 -18 -121 -18
l-121 0 6 28 c3 15 31 300 63 634 31 334 59 605 61 603 2 -2 28 -279 58 -617z"/>
<path d="M9200 8120 c0 -29 2 -30 45 -30 l45 0 0 -1053 c0 -1178 -5 -1102 72
-1205 43 -57 113 -107 193 -138 39 -15 76 -19 170 -19 114 0 123 2 187 32 89
42 163 112 199 188 l29 60 0 1067 0 1066 43 -1 c40 -1 42 0 45 31 l3 32 -230
0 c-178 0 -231 -3 -232 -12 0 -7 -2 -21 -4 -30 -3 -15 4 -18 41 -18 l44 0 0
-1135 0 -1134 -30 -35 c-71 -80 -179 -65 -229 31 -8 16 -11 333 -11 1147 l0
1126 45 0 c43 0 45 1 45 30 l0 30 -235 0 -235 0 0 -30z"/>
<path d="M10320 7780 l0 -370 135 0 135 0 0 340 0 340 60 0 60 0 0 -1175 0
-1175 -45 0 c-43 0 -45 -1 -45 -30 l0 -30 233 0 233 0 0 30 c0 29 -2 30 -43
30 l-43 0 0 1175 0 1175 60 0 60 0 0 -340 0 -340 135 0 134 0 1 370 0 370
-535 0 -535 0 0 -370z"/>
<path d="M6233 5373 l-5193 -3 0 -35 0 -35 5195 -2 5195 -3 0 43 c0 23 -1 41
-2 40 -2 -2 -2340 -4 -5195 -5z"/>
<path d="M2683 4898 c-46 -33 -67 -106 -67 -233 0 -122 15 -178 59 -222 28
-28 40 -33 82 -33 41 0 54 5 75 28 41 43 58 109 58 226 0 126 -18 194 -61 230
-40 34 -101 35 -146 4z m109 -42 c30 -22 38 -64 38 -193 0 -94 -4 -133 -16
-159 -27 -57 -85 -58 -119 -2 -15 27 -19 53 -19 153 -1 161 18 214 79 214 11
0 28 -5 37 -13z"/>
<path d="M3565 4887 c-44 -44 -58 -100 -59 -233 0 -100 3 -116 27 -166 30 -60
56 -78 117 -78 89 0 130 81 130 260 0 175 -41 250 -137 250 -38 0 -50 -5 -78
-33z m130 -49 c27 -32 27 -32 23 -177 -3 -156 -12 -186 -55 -197 -67 -17 -96
39 -97 186 -1 123 8 174 35 201 28 28 63 24 94 -13z"/>
<path d="M4028 4905 c-79 -44 -109 -273 -53 -412 30 -76 118 -105 200 -66 l35
17 0 118 0 118 -70 0 c-68 0 -70 -1 -70 -25 0 -23 4 -25 45 -25 l45 0 0 -71
c0 -57 -4 -75 -17 -85 -40 -30 -97 -11 -118 39 -33 81 -25 273 14 327 24 34
67 38 97 9 13 -12 21 -26 18 -30 -10 -16 23 -9 46 9 l22 18 -41 37 c-34 31
-48 37 -84 37 -23 -1 -54 -7 -69 -15z"/>
<path d="M7051 4911 c-10 -7 0 -38 50 -147 63 -139 63 -139 67 -245 4 -105 4
-106 27 -101 22 4 23 9 27 105 4 100 5 105 67 241 34 76 61 140 59 141 -2 2
-15 6 -31 10 -18 5 -27 3 -27 -4 0 -10 -87 -219 -95 -228 -1 -2 -24 51 -51
117 -48 118 -60 132 -93 111z"/>
<path d="M7942 4912 c-9 -7 -3 -40 28 -148 22 -76 55 -188 72 -247 17 -59 36
-106 41 -104 11 3 157 488 150 500 -2 4 -14 7 -27 7 -25 0 -24 3 -90 -235
l-33 -119 -16 54 c-9 30 -31 110 -49 177 -33 123 -42 136 -76 115z"/>
<path d="M9799 4903 c-36 -22 -57 -70 -70 -156 -14 -98 -3 -200 27 -264 14
-30 22 -58 18 -65 -6 -10 -5 -10 7 -1 9 8 20 9 29 3 8 -6 35 -10 59 -10 37 0
49 5 76 34 41 44 55 100 55 224 0 173 -42 252 -133 252 -23 0 -54 -8 -68 -17z
m109 -53 c31 -29 34 -52 30 -204 -3 -126 -5 -136 -27 -160 -37 -39 -82 -33
-105 13 -19 36 -29 158 -21 241 11 111 68 161 123 110z"/>
<path d="M2210 4661 l0 -248 25 5 c25 4 25 4 25 123 l0 119 86 0 c83 0 85 1
82 23 -3 20 -9 22 -85 25 l-83 3 0 74 0 75 100 0 100 0 0 25 0 25 -125 0 -125
0 0 -249z"/>
<path d="M3060 4885 c0 -24 3 -25 55 -25 l55 0 0 -224 0 -223 25 5 25 4 0 219
0 219 55 0 c52 0 55 1 55 25 l0 25 -135 0 -135 0 0 -25z"/>
<path d="M4420 4665 l0 -245 25 0 25 0 0 110 0 110 25 0 c23 0 32 -13 81 -112
30 -62 58 -114 62 -116 4 -1 16 4 26 11 17 12 15 19 -33 114 l-50 101 24 16
c68 44 79 164 21 222 -33 33 -36 34 -120 34 l-86 0 0 -245z m169 169 c23 -30
26 -59 10 -101 -14 -37 -25 -43 -81 -43 l-48 0 0 85 0 85 49 0 c42 0 53 -4 70
-26z"/>
<path d="M4931 4873 c-5 -21 -26 -103 -47 -183 -20 -80 -43 -171 -52 -203 -13
-50 -13 -60 -1 -68 35 -23 43 -10 73 124 6 26 9 27 71 27 l64 0 10 -37 c5 -21
13 -56 18 -78 7 -34 13 -40 36 -41 15 -1 27 4 27 10 0 11 -20 93 -79 321 -16
61 -31 122 -35 138 -5 23 -11 27 -41 27 -31 0 -35 -3 -44 -37z"/>
<path d="M5320 4665 l0 -245 28 0 27 0 -3 121 -3 120 83 -2 c82 -2 83 -2 83
22 0 23 -3 24 -82 27 l-83 3 0 74 0 75 99 0 99 0 -2 25 -1 25 -122 0 -123 0 0
-245z"/>
<path d="M5770 4885 c0 -22 4 -25 35 -25 l35 0 0 -195 0 -195 -35 0 c-31 0
-35 -3 -35 -25 0 -25 0 -25 95 -25 95 0 95 0 95 25 0 22 -4 25 -35 25 l-35 0
0 195 0 195 35 0 c31 0 35 3 35 25 0 25 0 25 -95 25 -95 0 -95 0 -95 -25z"/>
<path d="M6264 4883 c-4 -16 -19 -77 -35 -138 -59 -228 -79 -310 -79 -321 0
-6 12 -11 27 -10 23 1 29 7 36 41 5 22 13 57 18 78 l10 37 64 0 c62 0 65 -1
71 -27 30 -134 38 -147 73 -124 12 8 12 18 -1 68 -9 32 -32 123 -52 203 -21
80 -42 162 -47 183 -9 34 -13 37 -44 37 -30 0 -36 -4 -41 -27z"/>
<path d="M8430 4885 c0 -22 4 -25 35 -25 l35 0 0 -195 0 -195 -35 0 c-31 0
-35 -3 -35 -25 0 -25 0 -25 95 -25 95 0 95 0 95 25 0 22 -4 25 -35 25 l-35 0
0 195 0 195 35 0 c31 0 35 3 35 25 0 25 0 25 -95 25 -95 0 -95 0 -95 -25z"/>
<path d="M8840 4886 c0 -19 5 -26 20 -26 19 0 20 -7 20 -195 0 -188 -1 -195
-20 -195 -15 0 -20 -7 -20 -26 l0 -26 106 4 c105 3 106 3 134 35 38 43 50 90
50 204 0 111 -19 185 -56 220 -23 22 -36 24 -130 27 l-104 4 0 -26z m208 -66
c22 -33 23 -42 20 -167 -3 -123 -5 -133 -27 -157 -19 -20 -34 -26 -68 -26
l-43 0 0 196 0 195 47 -3 c41 -3 50 -7 71 -38z"/>
<path d="M9305 4665 l0 -245 123 0 122 0 0 25 c0 25 0 25 -95 25 l-95 0 0 95
0 95 80 0 c79 0 80 0 80 25 0 25 -1 25 -80 25 l-80 0 0 75 0 75 95 0 c95 0 95
0 95 25 l0 25 -122 0 -123 0 0 -245z"/>
</g>
</svg>
